<?xml version="1.0" encoding="utf-8"?>
<!-- Generator: Adobe Illustrator 24.3.0, SVG Export Plug-In . SVG Version: 6.00 Build 0)  -->
<svg version="1.1" id="Layer_1" xmlns="http://www.w3.org/2000/svg" xmlns:xlink="http://www.w3.org/1999/xlink" x="0px" y="0px"
	 viewBox="0 0 215 50" style="enable-background:new 0 0 215 50;" xml:space="preserve">
<style type="text/css">
	.st0{display:none;fill:url(#SVGID_1_);}
	.st1{display:none;fill:url(#SVGID_2_);}
	.st2{display:none;}
	.st3{display:inline;fill:#111722;}
	.st4{fill-rule:evenodd;clip-rule:evenodd;fill:url(#SVGID_3_);}
	.st5{fill-rule:evenodd;clip-rule:evenodd;fill:url(#SVGID_4_);}
	.st6{fill-rule:evenodd;clip-rule:evenodd;fill:url(#SVGID_5_);}
	.st7{fill-rule:evenodd;clip-rule:evenodd;fill:url(#SVGID_6_);}
	.st8{fill-rule:evenodd;clip-rule:evenodd;fill:url(#SVGID_7_);}
	.st9{fill-rule:evenodd;clip-rule:evenodd;fill:none;}
	.st10{fill-rule:evenodd;clip-rule:evenodd;fill:url(#SVGID_8_);}
	.st11{opacity:0.6;}
	.st12{fill:url(#SVGID_9_);}
	.st13{fill:url(#SVGID_10_);}
	.st14{fill:url(#SVGID_11_);}
	.st15{fill:url(#SVGID_12_);}
	.st16{fill:url(#SVGID_13_);}
	.st17{fill:url(#SVGID_14_);}
	.st18{fill:url(#SVGID_15_);}
	.st19{fill:url(#SVGID_16_);}
	.st20{fill:url(#SVGID_17_);}
	.st21{fill:url(#SVGID_18_);}
	.st22{fill:url(#SVGID_19_);}
	.st23{fill:url(#SVGID_20_);}
	.st24{fill:url(#SVGID_21_);}
	.st25{fill:url(#SVGID_22_);}
	.st26{fill:url(#SVGID_23_);}
	.st27{fill:url(#SVGID_24_);}
	.st28{fill:url(#SVGID_25_);}
	.st29{fill:url(#SVGID_26_);}
	.st30{fill:url(#SVGID_27_);}
	.st31{fill:url(#SVGID_28_);}
	.st32{fill:url(#SVGID_29_);}
	.st33{fill:url(#SVGID_30_);}
	.st34{fill:url(#SVGID_31_);}
	.st35{fill:url(#SVGID_32_);}
	.st36{fill:url(#SVGID_33_);}
	.st37{fill:url(#SVGID_34_);}
	.st38{opacity:0.5;}
	.st39{fill:url(#SVGID_35_);}
	.st40{fill:url(#SVGID_36_);}
	.st41{fill:url(#SVGID_37_);}
	.st42{fill:url(#SVGID_38_);}
	.st43{fill:url(#SVGID_39_);}
	.st44{fill:url(#SVGID_40_);}
	.st45{fill:url(#SVGID_41_);}
	.st46{fill:url(#SVGID_42_);}
	.st47{fill:url(#SVGID_43_);}
	.st48{fill:url(#SVGID_44_);}
	.st49{fill:url(#SVGID_45_);}
	.st50{fill:url(#SVGID_46_);}
	.st51{fill:url(#SVGID_47_);}
	.st52{fill:url(#SVGID_48_);}
	.st53{fill:url(#SVGID_49_);}
	.st54{fill:url(#SVGID_50_);}
	.st55{fill:#FFFFFF;}
	.st56{font-family:'InternacionalAlt-Bold';}
	.st57{font-size:29px;}
</style>
<linearGradient id="SVGID_1_" gradientUnits="userSpaceOnUse" x1="7.9233" y1="433.9233" x2="27.5448" y2="453.5448" gradientTransform="matrix(1 0 0 1 0 -426)">
	<stop  offset="0" style="stop-color:#4A6CF7"/>
	<stop  offset="1" style="stop-color:#4A6CF7;stop-opacity:0"/>
</linearGradient>
<path class="st0" d="M15.8,0.9c1.2-1.2,3.1-1.2,4.3,0L35,15.8c1.2,1.2,1.2,3.1,0,4.3L20.1,35c-1.2,1.2-3.1,1.2-4.3,0L0.9,20.1
	c-1.2-1.2-1.2-3.1,0-4.3L15.8,0.9z"/>
<linearGradient id="SVGID_2_" gradientUnits="userSpaceOnUse" x1="7.9254" y1="448.0003" x2="27.5469" y2="467.6219" gradientTransform="matrix(1 0 0 1 0 -426)">
	<stop  offset="0" style="stop-color:#4A6CF7;stop-opacity:0"/>
	<stop  offset="1" style="stop-color:#4A6CF7"/>
</linearGradient>
<path class="st1" d="M15.8,15c1.2-1.2,3.1-1.2,4.3,0L35,29.9c1.2,1.2,1.2,3.1,0,4.3l-14.9,15c-1.2,1.2-3.1,1.2-4.3,0l-14.9-15
	c-1.2-1.2-1.2-3.1,0-4.3L15.8,15z"/>
<g class="st2">
	<path class="st3" d="M65.7,36.2c-1.7,0-3.3-0.3-4.8-0.9c-1.4-0.6-2.7-1.4-3.7-2.5s-1.9-2.3-2.4-3.7c-0.5-1.4-0.8-2.9-0.8-4.6
		s0.3-3.2,0.9-4.5c0.6-1.4,1.4-2.6,2.5-3.6c1.1-1.1,2.4-1.9,3.8-2.4s3-0.9,4.8-0.9c1.2,0,2.3,0.2,3.4,0.5s2.1,0.8,3,1.3
		s1.6,1.2,2.2,1.9l-3,3.1c-0.6-0.5-1.1-1-1.8-1.3c-0.6-0.4-1.2-0.7-1.9-0.9c-0.7-0.2-1.3-0.3-2.1-0.3c-1,0-1.9,0.2-2.8,0.5
		c-0.8,0.4-1.6,0.9-2.2,1.5s-1.1,1.4-1.5,2.3c-0.3,0.9-0.5,1.8-0.5,2.9c0,1,0.2,2,0.5,2.9c0.4,0.9,0.9,1.6,1.5,2.3
		c0.7,0.6,1.4,1.1,2.3,1.5c0.9,0.4,1.8,0.5,2.8,0.5c0.7,0,1.4-0.1,2-0.3s1.2-0.5,1.7-0.9c0.5-0.4,0.9-0.9,1.1-1.4
		c0.3-0.5,0.4-1.1,0.4-1.7v-0.8l0.6,0.9h-6.4v-4h10.4c0,0.2,0,0.5,0.1,0.9c0,0.3,0.1,0.7,0.1,1c0,0.3,0,0.6,0,0.8
		c0,1.5-0.3,2.8-0.8,4c-0.5,1.2-1.2,2.3-2.2,3.1c-0.9,0.9-2,1.6-3.3,2C68.6,35.9,67.2,36.2,65.7,36.2z"/>
	<path class="st3" d="M87.1,36.2c-1.7,0-3.3-0.4-4.6-1.1c-1.3-0.8-2.4-1.8-3.2-3.1c-0.8-1.3-1.2-2.8-1.2-4.5s0.4-3.2,1.2-4.5
		c0.8-1.3,1.9-2.4,3.2-3.1c1.4-0.8,2.9-1.1,4.6-1.1c1.7,0,3.2,0.4,4.6,1.1c1.4,0.8,2.4,1.8,3.2,3.1c0.8,1.3,1.2,2.8,1.2,4.5
		s-0.4,3.2-1.2,4.5c-0.8,1.3-1.8,2.4-3.2,3.1C90.3,35.8,88.8,36.2,87.1,36.2z M87.1,32.2c0.8,0,1.6-0.2,2.2-0.6
		c0.7-0.4,1.2-1,1.5-1.7c0.4-0.8,0.6-1.6,0.6-2.5c0-0.9-0.2-1.8-0.6-2.5c-0.4-0.8-0.9-1.3-1.5-1.7c-0.7-0.4-1.4-0.6-2.2-0.6
		c-0.8,0-1.6,0.2-2.3,0.6c-0.7,0.4-1.2,1-1.6,1.7c-0.4,0.7-0.6,1.6-0.5,2.5c0,0.9,0.2,1.8,0.5,2.5c0.4,0.7,0.9,1.3,1.6,1.7
		C85.4,32,86.2,32.2,87.1,32.2z"/>
	<path class="st3" d="M106.8,36.2c-1.4,0-2.7-0.2-3.8-0.5c-1.1-0.3-2.1-0.8-3-1.5c-0.9-0.7-1.7-1.5-2.4-2.4l3-3.4
		c1.1,1.5,2.1,2.4,3.1,3c1.1,0.5,2.2,0.8,3.4,0.8c0.7,0,1.2-0.1,1.8-0.3c0.5-0.2,0.9-0.5,1.2-0.8s0.4-0.8,0.4-1.2
		c0-0.3-0.1-0.6-0.2-0.9c-0.2-0.3-0.4-0.5-0.6-0.8c-0.3-0.2-0.6-0.4-1-0.6c-0.4-0.2-0.8-0.4-1.3-0.5c-0.5-0.1-1-0.3-1.5-0.4
		c-1.2-0.3-2.2-0.6-3.1-1c-0.9-0.4-1.6-0.9-2.2-1.5c-0.6-0.6-1.1-1.3-1.3-2c-0.3-0.8-0.4-1.6-0.4-2.5c0-1,0.2-1.9,0.6-2.7
		c0.4-0.8,1-1.6,1.8-2.1c0.8-0.6,1.6-1.1,2.6-1.4c1-0.3,2.1-0.5,3.2-0.5c1.4,0,2.6,0.2,3.6,0.5c1,0.3,1.9,0.7,2.7,1.3
		c0.8,0.6,1.4,1.3,1.9,2.1l-3,2.9c-0.4-0.6-0.9-1.1-1.5-1.5c-0.5-0.4-1.1-0.7-1.7-0.9c-0.6-0.2-1.2-0.3-1.9-0.3
		c-0.7,0-1.3,0.1-1.8,0.3c-0.5,0.2-0.9,0.4-1.2,0.8c-0.3,0.3-0.4,0.8-0.4,1.2c0,0.4,0.1,0.7,0.3,1s0.5,0.6,0.8,0.8
		c0.4,0.2,0.8,0.4,1.3,0.6c0.5,0.2,1.1,0.3,1.7,0.5c1.2,0.2,2.2,0.5,3.2,0.9c0.9,0.4,1.7,0.9,2.4,1.4c0.7,0.5,1.2,1.2,1.6,1.9
		c0.4,0.7,0.5,1.5,0.5,2.5c0,1.5-0.4,2.8-1.1,3.9c-0.7,1.1-1.7,1.9-3,2.5C110,35.9,108.5,36.2,106.8,36.2L106.8,36.2z"/>
	<path class="st3" d="M120.2,35.8V14.6h4.5v21.2H120.2z M117.1,23v-4.1h11.2V23H117.1z"/>
	<path class="st3" d="M136.9,36.2c-1.4,0-2.7-0.4-3.8-1.2s-2-1.8-2.7-3.1c-0.7-1.3-1-2.8-1-4.5s0.3-3.2,1-4.5
		c0.7-1.3,1.6-2.4,2.8-3.1c1.1-0.8,2.5-1.1,3.9-1.1c0.8,0,1.6,0.1,2.3,0.4c0.7,0.2,1.3,0.6,1.8,1c0.5,0.4,1,0.9,1.3,1.5
		s0.6,1.1,0.8,1.8l-1-0.2v-4.1h4.5v16.9h-4.6v-4.1l1-0.1c-0.2,0.6-0.4,1.2-0.8,1.7c-0.4,0.5-0.9,1-1.4,1.4c-0.6,0.4-1.2,0.7-1.9,1
		C138.4,36,137.6,36.2,136.9,36.2L136.9,36.2z M138.1,32.2c0.9,0,1.6-0.2,2.2-0.6s1.1-1,1.5-1.7c0.4-0.8,0.5-1.6,0.5-2.6
		c0-1-0.2-1.8-0.5-2.5c-0.3-0.7-0.8-1.3-1.5-1.7c-0.6-0.4-1.4-0.6-2.2-0.6c-0.8,0-1.6,0.2-2.2,0.6c-0.6,0.4-1.1,1-1.5,1.7
		c-0.4,0.7-0.5,1.6-0.5,2.5c0,1,0.2,1.9,0.5,2.6c0.4,0.7,0.9,1.3,1.5,1.7C136.5,32,137.3,32.2,138.1,32.2z"/>
	<path class="st3" d="M150.9,35.8V18.9h4.4l0.2,5.4l-0.8-1.1c0.3-0.9,0.7-1.7,1.2-2.4c0.6-0.7,1.2-1.3,2-1.7
		c0.8-0.4,1.6-0.6,2.5-0.6c0.4,0,0.7,0,1.1,0.1c0.3,0.1,0.6,0.1,0.9,0.2l-1.2,5c-0.3-0.1-0.6-0.2-0.9-0.3c-0.4-0.1-0.7-0.2-1.1-0.2
		c-0.5,0-1,0.1-1.4,0.3c-0.4,0.2-0.8,0.4-1.1,0.8c-0.3,0.3-0.6,0.7-0.8,1.1c-0.2,0.5-0.3,0.9-0.3,1.5v8.8L150.9,35.8z"/>
	<path class="st3" d="M166.6,35.8V14.6h4.5v21.2H166.6z M163.5,23v-4.1h11.2V23H163.5z"/>
	<path class="st3" d="M182.9,36.2c-1.2,0-2.3-0.3-3.2-0.8c-0.9-0.5-1.6-1.3-2.1-2.3c-0.5-1-0.7-2.2-0.7-3.7V18.9h4.5v9.7
		c0,0.8,0.1,1.4,0.4,2c0.3,0.5,0.6,1,1.1,1.3s1.1,0.4,1.7,0.4c0.5,0,0.9-0.1,1.4-0.2c0.4-0.2,0.8-0.4,1.1-0.7
		c0.3-0.3,0.5-0.6,0.7-1.1s0.3-0.8,0.3-1.3V18.9h4.5v16.9h-4.3l-0.2-3.5L189,32c-0.3,0.8-0.7,1.5-1.3,2.1c-0.6,0.6-1.3,1.1-2.1,1.5
		S183.9,36.2,182.9,36.2z"/>
	<path class="st3" d="M196.8,42.9v-24h4.4l0.1,3.8l-0.8-0.3c0.1-0.7,0.5-1.3,1.1-1.9c0.6-0.6,1.3-1,2.2-1.4s1.8-0.5,2.8-0.5
		c1.5,0,2.8,0.4,3.9,1.1c1.1,0.8,2.1,1.8,2.7,3.1c0.7,1.3,1,2.8,1,4.5c0,1.7-0.3,3.2-1,4.5s-1.6,2.4-2.7,3.1
		c-1.1,0.8-2.5,1.1-3.9,1.1c-1,0-1.9-0.2-2.8-0.5c-0.9-0.4-1.6-0.9-2.2-1.5c-0.6-0.6-1-1.3-1.1-2l1.1-0.5v11.2
		C201.3,42.9,196.8,42.9,196.8,42.9z M205.5,32.2c0.8,0,1.6-0.2,2.2-0.6s1.1-1,1.5-1.7c0.4-0.8,0.5-1.6,0.5-2.6s-0.2-1.8-0.5-2.5
		c-0.4-0.7-0.9-1.3-1.5-1.7c-0.6-0.4-1.4-0.6-2.2-0.6c-0.9,0-1.6,0.2-2.2,0.6c-0.6,0.4-1.1,1-1.5,1.7c-0.4,0.7-0.5,1.6-0.5,2.5
		s0.2,1.8,0.5,2.6c0.4,0.7,0.9,1.3,1.5,1.7S204.6,32.2,205.5,32.2z"/>
</g>
<g>
	<g>
		
			<linearGradient id="SVGID_3_" gradientUnits="userSpaceOnUse" x1="28.7764" y1="47.2233" x2="36.7251" y2="31.9185" gradientTransform="matrix(1 0 0 -1 0 51)">
			<stop  offset="0" style="stop-color:#F69262"/>
			<stop  offset="0.3226" style="stop-color:#EF4C44"/>
			<stop  offset="0.6989" style="stop-color:#CB2038"/>
			<stop  offset="1" style="stop-color:#811437"/>
		</linearGradient>
		<path class="st4" d="M29.5,0.1c-2.1,5.5-2.4,9.3,2.1,13.6c0.5-3.2,1.4-4.1,4-6c-5.5,7.7-0.1,8.4,1.5,15.7
			c-2.3-5.3-4.9-5.4-7.7-9.4C26.2,9.4,26.7,5.3,29.5,0.1z"/>
		
			<linearGradient id="SVGID_4_" gradientUnits="userSpaceOnUse" x1="25.5499" y1="28.985" x2="39.7536" y2="28.985" gradientTransform="matrix(1 0 0 -1 0 51)">
			<stop  offset="0" style="stop-color:#F69262"/>
			<stop  offset="0.3226" style="stop-color:#EF4C44"/>
			<stop  offset="0.6989" style="stop-color:#CB2038"/>
			<stop  offset="1" style="stop-color:#811437"/>
		</linearGradient>
		<path class="st5" d="M25.5,5.8c0.1-0.3,0.3-0.6,0.5-1c0.8-1.5,1.9-3,3.5-4.9l0,0.1c-2.8,5.2-3.2,9.3,0,13.9c2.8,4,5.4,4.1,7.7,9.4
			c-1.6-7.3-7-8-1.5-15.7c-1.9,3.5-2,6-0.6,8.8c2.5,5,6.8,11.2,3.5,17c-0.7,1.3-1.9,2.5-3.7,3.6c-2,1.1-3.5,1.8-4.6,2.8
			c-1,0.9-1.6,2.1-2,4.1c-1.6-7.5,1.7-8.4,4.8-12.9c3.1-4.5,1.6-8-1.2-11.3C27.5,14.8,25.5,11.4,25.5,5.8z"/>
		
			<linearGradient id="SVGID_5_" gradientUnits="userSpaceOnUse" x1="24.8325" y1="26.07" x2="34.7735" y2="26.07" gradientTransform="matrix(1 0 0 -1 0 51)">
			<stop  offset="0" style="stop-color:#F69262"/>
			<stop  offset="0.3226" style="stop-color:#EF4C44"/>
			<stop  offset="0.6989" style="stop-color:#CB2038"/>
			<stop  offset="1" style="stop-color:#811437"/>
		</linearGradient>
		<path class="st6" d="M28.3,44c-5.5-7-1.3-9.2,0.9-13.4c1.3-2.5,1.9-5.8-0.7-11.2l-0.9-1.9l0-0.1c-2.6-5.2-3.4-8.2-2-11.7
			c0,5.5,2,9,6.3,14c2.8,3.2,4.3,6.7,1.2,11.3C30,35.7,26.6,36.6,28.3,44z"/>
		
			<linearGradient id="SVGID_6_" gradientUnits="userSpaceOnUse" x1="17.7276" y1="29.9891" x2="25.4844" y2="29.9891" gradientTransform="matrix(1 0 0 -1 0 51)">
			<stop  offset="0" style="stop-color:#F69262"/>
			<stop  offset="0.3226" style="stop-color:#EF4C44"/>
			<stop  offset="0.6989" style="stop-color:#CB2038"/>
			<stop  offset="1" style="stop-color:#811437"/>
		</linearGradient>
		<path class="st7" d="M23,12.4c-0.1,5.8,2,12.6-1.2,14.1c-0.9,0.4-2.3,0-2.6-2.2C19,22.4,19.6,21,21.1,19c-7.8,8,0.1,14.1,3.6,8.2
			C27,23.2,23.8,17.1,23,12.4z"/>
		
			<linearGradient id="SVGID_7_" gradientUnits="userSpaceOnUse" x1="33.9558" y1="35.7186" x2="5.4388" y2="11.2937" gradientTransform="matrix(1 0 0 -1 0 51)">
			<stop  offset="0" style="stop-color:#F69262"/>
			<stop  offset="0.3226" style="stop-color:#EF4C44"/>
			<stop  offset="0.6989" style="stop-color:#CB2038"/>
			<stop  offset="1" style="stop-color:#811437"/>
		</linearGradient>
		<path class="st8" d="M28,21.4c-0.2-0.4-0.4-0.8-0.6-1.2c-0.4-0.7-0.8-1.5-1.2-2.2c-0.7-1.3-1.3-2.6-1.7-3.9
			c-0.6-2-0.7-2.9-0.9-5.3c-0.3,1.1-0.5,2.3-0.5,3.6c0.8,4.7,4,10.8,1.6,14.9c-3.4,5.9-11.4-0.2-3.6-8.2c-4,2.7-4.5,5.5-4.6,9
			c-0.1,6.1,2.9,8.8,8.1,10.7c-1.5-3.4-1.1-5,0.9-8.1C28.2,26.7,28.7,25.4,28,21.4z"/>
		<path class="st9" d="M24.6,38.8c-0.2-3.8,1.1-5.6,2.3-7.4c1-1.5,2.1-2.8,2.2-5.2c0.1-1.8-0.4-3.3-1.2-4.9c0.7,4,0.2,5.4-2.5,9.3
			C23.5,33.7,23.1,35.4,24.6,38.8z"/>
		
			<linearGradient id="SVGID_8_" gradientUnits="userSpaceOnUse" x1="50.3457" y1="41.8591" x2="17.7158" y2="7.4757" gradientTransform="matrix(1 0 0 -1 0 51)">
			<stop  offset="0" style="stop-color:#F23839"/>
			<stop  offset="1" style="stop-color:#76278C"/>
		</linearGradient>
		<path class="st10" d="M36.5,17.5c5.2,3,8.7,8.6,8.7,15.1c0,9.6-7.7,17.3-17.1,17.3S11,42.1,11,32.6c0-6.5,3.5-12.1,8.7-15.1
			c-4.2,2.8-7,7.6-7,13c0,8.6,6.9,15.5,15.4,15.5c8.5,0,15.4-7,15.4-15.5C43.5,25.1,40.7,20.3,36.5,17.5z"/>
		<g>
			<g>
				<g>
					<g class="st11">
						
							<radialGradient id="SVGID_9_" cx="5752.9424" cy="6924.4126" r="1.0881" gradientTransform="matrix(3.8974 -3.9345 -0.3387 -0.3419 -20055.248 25035.0098)" gradientUnits="userSpaceOnUse">
							<stop  offset="0" style="stop-color:#FFFFFF;stop-opacity:0.6"/>
							<stop  offset="1" style="stop-color:#FFFFFF;stop-opacity:0"/>
						</radialGradient>
						<path class="st12" d="M25.3,28.5c0.2,0.2-1.5,2.3-3.9,4.6s-4.4,4.1-4.6,3.9c-0.2-0.2,1.5-2.3,3.9-4.7
							C23.1,30,25.1,28.3,25.3,28.5z"/>
						
							<radialGradient id="SVGID_10_" cx="5766.5684" cy="17781.2715" r="0.6893" gradientTransform="matrix(5.0253 -5.0731 -0.2675 -0.27 -24201.5645 34088.4492)" gradientUnits="userSpaceOnUse">
							<stop  offset="0" style="stop-color:#FFFFFF"/>
							<stop  offset="0.1413" style="stop-color:#FFFFFF;stop-opacity:0.8587"/>
							<stop  offset="1" style="stop-color:#FFFFFF;stop-opacity:0"/>
						</radialGradient>
						<path class="st13" d="M24.6,29.2c0.1,0.1-1.4,1.8-3.3,3.7s-3.6,3.4-3.7,3.3c-0.1-0.1,1.4-1.8,3.3-3.7S24.5,29.1,24.6,29.2z"/>
					</g>
				</g>
				<g>
					<g>
						<g>
							<g>
								
									<radialGradient id="SVGID_11_" cx="36807.8633" cy="-629.6164" r="1.6451" gradientTransform="matrix(-7.590000e-02 7.660000e-02 0.7877 0.7952 3309.283 -2285.5903)" gradientUnits="userSpaceOnUse">
									<stop  offset="0" style="stop-color:#FFFFFF"/>
									<stop  offset="7.010000e-02" style="stop-color:#FFFFFF;stop-opacity:0.9299"/>
									<stop  offset="1" style="stop-color:#FFFFFF;stop-opacity:0"/>
								</radialGradient>
								<path class="st14" d="M20,33.7c-0.7-0.7-1.2-1.4-1.2-1.4s0.7,0.5,1.4,1.2c0.7,0.7,1.2,1.4,1.2,1.4
									C21.4,35,20.8,34.4,20,33.7z"/>
								
									<radialGradient id="SVGID_12_" cx="36808.0117" cy="-396.701" r="0.5702" gradientTransform="matrix(-7.590000e-02 7.660000e-02 0.4252 0.4292 2982.0535 -2615.9202)" gradientUnits="userSpaceOnUse">
									<stop  offset="0" style="stop-color:#FFFFFF"/>
									<stop  offset="7.010000e-02" style="stop-color:#FFFFFF;stop-opacity:0.9299"/>
									<stop  offset="1" style="stop-color:#FFFFFF;stop-opacity:0"/>
								</radialGradient>
								<path class="st15" d="M20.1,33.6c-0.1-0.1-0.2-0.3-0.2-0.3C20,33.3,20.1,33.4,20.1,33.6c0.2,0,0.3,0.2,0.3,0.2
									C20.4,33.9,20.3,33.8,20.1,33.6z"/>
							</g>
						</g>
					</g>
					<g>
						<g>
							<g>
								
									<radialGradient id="SVGID_13_" cx="35822.9453" cy="-216.9781" r="1.6449" gradientTransform="matrix(7.820000e-02 7.890000e-02 0.7709 -0.7783 -2612.9333 -2962.2258)" gradientUnits="userSpaceOnUse">
									<stop  offset="0" style="stop-color:#FFFFFF"/>
									<stop  offset="7.010000e-02" style="stop-color:#FFFFFF;stop-opacity:0.9299"/>
									<stop  offset="1" style="stop-color:#FFFFFF;stop-opacity:0"/>
								</radialGradient>
								<path class="st16" d="M20.3,33.7c-0.7,0.7-1.3,1.2-1.4,1.2s0.4-0.7,1.1-1.4s1.3-1.2,1.4-1.2S21,33,20.3,33.7z"/>
								
									<radialGradient id="SVGID_14_" cx="35822.9023" cy="-141.1411" r="0.5701" gradientTransform="matrix(7.820000e-02 7.890000e-02 0.4252 -0.4292 -2720.2139 -2853.9492)" gradientUnits="userSpaceOnUse">
									<stop  offset="0" style="stop-color:#FFFFFF"/>
									<stop  offset="7.010000e-02" style="stop-color:#FFFFFF;stop-opacity:0.9299"/>
									<stop  offset="1" style="stop-color:#FFFFFF;stop-opacity:0"/>
								</radialGradient>
								<path class="st17" d="M20.2,33.6c-0.1,0.1-0.3,0.2-0.3,0.2C19.9,33.8,20,33.7,20.2,33.6c0-0.2,0.2-0.3,0.2-0.3
									C20.4,33.4,20.4,33.5,20.2,33.6z"/>
							</g>
						</g>
					</g>
				</g>
				<g>
					<g>
						<g>
							<g>
								
									<radialGradient id="SVGID_15_" cx="36807.8633" cy="-629.6164" r="1.6451" gradientTransform="matrix(-7.590000e-02 7.660000e-02 0.7877 0.7952 3309.283 -2285.5903)" gradientUnits="userSpaceOnUse">
									<stop  offset="0" style="stop-color:#FFFFFF"/>
									<stop  offset="7.010000e-02" style="stop-color:#FFFFFF;stop-opacity:0.9299"/>
									<stop  offset="1" style="stop-color:#FFFFFF;stop-opacity:0"/>
								</radialGradient>
								<path class="st18" d="M20,33.7c-0.7-0.7-1.2-1.4-1.2-1.4s0.7,0.5,1.4,1.2c0.7,0.7,1.2,1.4,1.2,1.4
									C21.4,35,20.8,34.4,20,33.7z"/>
								
									<radialGradient id="SVGID_16_" cx="36808.0117" cy="-396.701" r="0.5702" gradientTransform="matrix(-7.590000e-02 7.660000e-02 0.4252 0.4292 2982.0535 -2615.9202)" gradientUnits="userSpaceOnUse">
									<stop  offset="0" style="stop-color:#FFFFFF"/>
									<stop  offset="7.010000e-02" style="stop-color:#FFFFFF;stop-opacity:0.9299"/>
									<stop  offset="1" style="stop-color:#FFFFFF;stop-opacity:0"/>
								</radialGradient>
								<path class="st19" d="M20.1,33.6c-0.1-0.1-0.2-0.3-0.2-0.3C20,33.3,20.1,33.4,20.1,33.6c0.2,0,0.3,0.2,0.3,0.2
									C20.4,33.9,20.3,33.8,20.1,33.6z"/>
							</g>
						</g>
					</g>
					<g>
						<g>
							<g>
								
									<radialGradient id="SVGID_17_" cx="35822.9453" cy="-216.9781" r="1.6449" gradientTransform="matrix(7.820000e-02 7.890000e-02 0.7709 -0.7783 -2612.9333 -2962.2258)" gradientUnits="userSpaceOnUse">
									<stop  offset="0" style="stop-color:#FFFFFF"/>
									<stop  offset="7.010000e-02" style="stop-color:#FFFFFF;stop-opacity:0.9299"/>
									<stop  offset="1" style="stop-color:#FFFFFF;stop-opacity:0"/>
								</radialGradient>
								<path class="st20" d="M20.3,33.7c-0.7,0.7-1.3,1.2-1.4,1.2s0.4-0.7,1.1-1.4s1.3-1.2,1.4-1.2S21,33,20.3,33.7z"/>
								
									<radialGradient id="SVGID_18_" cx="35822.9023" cy="-141.1411" r="0.5701" gradientTransform="matrix(7.820000e-02 7.890000e-02 0.4252 -0.4292 -2720.2139 -2853.9492)" gradientUnits="userSpaceOnUse">
									<stop  offset="0" style="stop-color:#FFFFFF"/>
									<stop  offset="7.010000e-02" style="stop-color:#FFFFFF;stop-opacity:0.9299"/>
									<stop  offset="1" style="stop-color:#FFFFFF;stop-opacity:0"/>
								</radialGradient>
								<path class="st21" d="M20.2,33.6c-0.1,0.1-0.3,0.2-0.3,0.2C19.9,33.8,20,33.7,20.2,33.6c0-0.2,0.2-0.3,0.2-0.3
									C20.4,33.4,20.4,33.5,20.2,33.6z"/>
							</g>
						</g>
					</g>
				</g>
			</g>
			<g>
				<g>
					<g class="st11">
						
							<radialGradient id="SVGID_19_" cx="5753.4678" cy="6889.1948" r="0.6934" gradientTransform="matrix(3.8974 -3.9345 -0.3387 -0.3419 -20055.248 25035.0098)" gradientUnits="userSpaceOnUse">
							<stop  offset="0" style="stop-color:#FFFFFF;stop-opacity:0.6"/>
							<stop  offset="1" style="stop-color:#FFFFFF;stop-opacity:0"/>
						</radialGradient>
						<path class="st22" d="M37.8,40c0.1,0.1-1,1.5-2.5,3c-1.5,1.5-2.8,2.6-2.9,2.5c-0.1-0.1,1-1.5,2.5-3S37.7,39.9,37.8,40z"/>
						
							<radialGradient id="SVGID_20_" cx="5766.9766" cy="17736.6777" r="0.439" gradientTransform="matrix(5.0253 -5.0731 -0.2675 -0.27 -24201.5645 34088.4492)" gradientUnits="userSpaceOnUse">
							<stop  offset="0" style="stop-color:#FFFFFF"/>
							<stop  offset="0.1413" style="stop-color:#FFFFFF;stop-opacity:0.8587"/>
							<stop  offset="1" style="stop-color:#FFFFFF;stop-opacity:0"/>
						</radialGradient>
						<path class="st23" d="M37.3,40.5c0.1,0.1-0.9,1.1-2.1,2.3c-1.2,1.2-2.3,2.2-2.3,2.1c-0.1-0.1,0.9-1.1,2.1-2.3
							C36.2,41.4,37.2,40.4,37.3,40.5z"/>
					</g>
				</g>
				<g>
					<g>
						<g>
							<g>
								
									<radialGradient id="SVGID_21_" cx="36776.5938" cy="-614.4529" r="1.0471" gradientTransform="matrix(-7.590000e-02 7.660000e-02 0.7877 0.7952 3309.283 -2285.5903)" gradientUnits="userSpaceOnUse">
									<stop  offset="0" style="stop-color:#FFFFFF"/>
									<stop  offset="7.010000e-02" style="stop-color:#FFFFFF;stop-opacity:0.9299"/>
									<stop  offset="1" style="stop-color:#FFFFFF;stop-opacity:0"/>
								</radialGradient>
								<path class="st24" d="M34.4,43.3c-0.5-0.5-0.8-0.9-0.7-0.9c0,0,0.5,0.3,0.9,0.8c0.5,0.5,0.8,0.9,0.7,0.9
									C35.3,44.1,34.9,43.8,34.4,43.3z"/>
								
									<radialGradient id="SVGID_22_" cx="36776.7461" cy="-368.6109" r="0.3629" gradientTransform="matrix(-7.590000e-02 7.660000e-02 0.4252 0.4292 2982.0535 -2615.9202)" gradientUnits="userSpaceOnUse">
									<stop  offset="0" style="stop-color:#FFFFFF"/>
									<stop  offset="7.010000e-02" style="stop-color:#FFFFFF;stop-opacity:0.9299"/>
									<stop  offset="1" style="stop-color:#FFFFFF;stop-opacity:0"/>
								</radialGradient>
								<path class="st25" d="M34.5,43.3c-0.1-0.1-0.1-0.2-0.1-0.2C34.3,43.1,34.4,43.1,34.5,43.3c0.1,0,0.2,0.1,0.2,0.1
									C34.6,43.4,34.5,43.4,34.5,43.3z"/>
							</g>
						</g>
					</g>
					<g>
						<g>
							<g>
								
									<radialGradient id="SVGID_23_" cx="35975.7344" cy="-213.9002" r="1.047" gradientTransform="matrix(7.820000e-02 7.890000e-02 0.7709 -0.7783 -2612.9333 -2962.2258)" gradientUnits="userSpaceOnUse">
									<stop  offset="0" style="stop-color:#FFFFFF"/>
									<stop  offset="7.010000e-02" style="stop-color:#FFFFFF;stop-opacity:0.9299"/>
									<stop  offset="1" style="stop-color:#FFFFFF;stop-opacity:0"/>
								</radialGradient>
								<path class="st26" d="M34.6,43.3c-0.5,0.5-0.8,0.8-0.9,0.7s0.3-0.5,0.7-0.9s0.8-0.8,0.9-0.7C35.3,42.5,35,42.9,34.6,43.3z"
									/>
								
									<radialGradient id="SVGID_24_" cx="35975.6914" cy="-135.5605" r="0.3629" gradientTransform="matrix(7.820000e-02 7.890000e-02 0.4252 -0.4292 -2720.2139 -2853.9492)" gradientUnits="userSpaceOnUse">
									<stop  offset="0" style="stop-color:#FFFFFF"/>
									<stop  offset="7.010000e-02" style="stop-color:#FFFFFF;stop-opacity:0.9299"/>
									<stop  offset="1" style="stop-color:#FFFFFF;stop-opacity:0"/>
								</radialGradient>
								<path class="st27" d="M34.5,43.3c-0.1,0.1-0.2,0.1-0.2,0.1C34.3,43.4,34.4,43.3,34.5,43.3c0-0.1,0.1-0.2,0.1-0.2
									C34.7,43.1,34.6,43.2,34.5,43.3z"/>
							</g>
						</g>
					</g>
				</g>
				<g>
					<g>
						<g>
							<g>
								
									<radialGradient id="SVGID_25_" cx="36776.5938" cy="-614.4529" r="1.0471" gradientTransform="matrix(-7.590000e-02 7.660000e-02 0.7877 0.7952 3309.283 -2285.5903)" gradientUnits="userSpaceOnUse">
									<stop  offset="0" style="stop-color:#FFFFFF"/>
									<stop  offset="7.010000e-02" style="stop-color:#FFFFFF;stop-opacity:0.9299"/>
									<stop  offset="1" style="stop-color:#FFFFFF;stop-opacity:0"/>
								</radialGradient>
								<path class="st28" d="M34.4,43.3c-0.5-0.5-0.8-0.9-0.7-0.9c0,0,0.5,0.3,0.9,0.8c0.5,0.5,0.8,0.9,0.7,0.9
									C35.3,44.1,34.9,43.8,34.4,43.3z"/>
								
									<radialGradient id="SVGID_26_" cx="36776.7461" cy="-368.6109" r="0.3629" gradientTransform="matrix(-7.590000e-02 7.660000e-02 0.4252 0.4292 2982.0535 -2615.9202)" gradientUnits="userSpaceOnUse">
									<stop  offset="0" style="stop-color:#FFFFFF"/>
									<stop  offset="7.010000e-02" style="stop-color:#FFFFFF;stop-opacity:0.9299"/>
									<stop  offset="1" style="stop-color:#FFFFFF;stop-opacity:0"/>
								</radialGradient>
								<path class="st29" d="M34.5,43.3c-0.1-0.1-0.1-0.2-0.1-0.2C34.3,43.1,34.4,43.1,34.5,43.3c0.1,0,0.2,0.1,0.2,0.1
									C34.6,43.4,34.5,43.4,34.5,43.3z"/>
							</g>
						</g>
					</g>
					<g>
						<g>
							<g>
								
									<radialGradient id="SVGID_27_" cx="35975.7344" cy="-213.9002" r="1.047" gradientTransform="matrix(7.820000e-02 7.890000e-02 0.7709 -0.7783 -2612.9333 -2962.2258)" gradientUnits="userSpaceOnUse">
									<stop  offset="0" style="stop-color:#FFFFFF"/>
									<stop  offset="7.010000e-02" style="stop-color:#FFFFFF;stop-opacity:0.9299"/>
									<stop  offset="1" style="stop-color:#FFFFFF;stop-opacity:0"/>
								</radialGradient>
								<path class="st30" d="M34.6,43.3c-0.5,0.5-0.8,0.8-0.9,0.7s0.3-0.5,0.7-0.9s0.8-0.8,0.9-0.7C35.3,42.5,35,42.9,34.6,43.3z"
									/>
								
									<radialGradient id="SVGID_28_" cx="35975.6914" cy="-135.5605" r="0.3629" gradientTransform="matrix(7.820000e-02 7.890000e-02 0.4252 -0.4292 -2720.2139 -2853.9492)" gradientUnits="userSpaceOnUse">
									<stop  offset="0" style="stop-color:#FFFFFF"/>
									<stop  offset="7.010000e-02" style="stop-color:#FFFFFF;stop-opacity:0.9299"/>
									<stop  offset="1" style="stop-color:#FFFFFF;stop-opacity:0"/>
								</radialGradient>
								<path class="st31" d="M34.5,43.3c-0.1,0.1-0.2,0.1-0.2,0.1C34.3,43.4,34.4,43.3,34.5,43.3c0-0.1,0.1-0.2,0.1-0.2
									C34.7,43.1,34.6,43.2,34.5,43.3z"/>
							</g>
						</g>
					</g>
				</g>
			</g>
			<g>
				<g class="st11">
					
						<radialGradient id="SVGID_29_" cx="5782.7168" cy="6900.4326" r="1.6051" gradientTransform="matrix(1.8963 -1.9144 -0.3387 -0.3419 -8594.3213 13464.8574)" gradientUnits="userSpaceOnUse">
						<stop  offset="0" style="stop-color:#FFFFFF;stop-opacity:0.6"/>
						<stop  offset="1" style="stop-color:#FFFFFF;stop-opacity:0"/>
					</radialGradient>
					<path class="st32" d="M37.7,32.4c0.3,0.3-0.8,1.9-2.5,3.6s-3.3,2.8-3.6,2.5c-0.3-0.3,0.8-1.9,2.5-3.6S37.4,32,37.7,32.4z"/>
					
						<radialGradient id="SVGID_30_" cx="5789.8164" cy="17750.873" r="1.0168" gradientTransform="matrix(2.4451 -2.4684 -0.2675 -0.27 -9374.1719 19119.7461)" gradientUnits="userSpaceOnUse">
						<stop  offset="0" style="stop-color:#FFFFFF"/>
						<stop  offset="0.1413" style="stop-color:#FFFFFF;stop-opacity:0.8587"/>
						<stop  offset="1" style="stop-color:#FFFFFF;stop-opacity:0"/>
					</radialGradient>
					<path class="st33" d="M37.1,32.9c0.2,0.2-0.8,1.4-2.2,2.8c-1.4,1.4-2.6,2.4-2.8,2.2c-0.1-0.2,0.8-1.4,2.2-2.8
						C35.7,33.8,37,32.8,37.1,32.9z"/>
				</g>
				<g>
					<g>
						<g>
							<g>
								
									<radialGradient id="SVGID_31_" cx="36550.9102" cy="-619.2801" r="1.4848" gradientTransform="matrix(-8.020000e-02 8.100000e-02 0.7877 0.7952 3453.6638 -2431.3323)" gradientUnits="userSpaceOnUse">
									<stop  offset="0" style="stop-color:#FFFFFF"/>
									<stop  offset="7.010000e-02" style="stop-color:#FFFFFF;stop-opacity:0.9299"/>
									<stop  offset="1" style="stop-color:#FFFFFF;stop-opacity:0"/>
								</radialGradient>
								<path class="st34" d="M33.8,36.2c-0.7-0.7-1.1-1.2-1-1.3c0.1-0.1,0.6,0.4,1.3,1.1c0.6,0.7,1.1,1.2,1,1.3
									C35,37.4,34.5,36.9,33.8,36.2z"/>
								
									<radialGradient id="SVGID_32_" cx="36551.0547" cy="-377.5531" r="0.5146" gradientTransform="matrix(-8.020000e-02 8.100000e-02 0.4252 0.4292 3126.4343 -2761.6621)" gradientUnits="userSpaceOnUse">
									<stop  offset="0" style="stop-color:#FFFFFF"/>
									<stop  offset="7.010000e-02" style="stop-color:#FFFFFF;stop-opacity:0.9299"/>
									<stop  offset="1" style="stop-color:#FFFFFF;stop-opacity:0"/>
								</radialGradient>
								<path class="st35" d="M33.9,36.2c-0.1-0.1-0.2-0.2-0.2-0.3C33.7,35.9,33.8,36,33.9,36.2c0.2,0,0.3,0.2,0.3,0.2
									C34.1,36.4,34,36.3,33.9,36.2z"/>
							</g>
						</g>
					</g>
					<g>
						<g>
							<g>
								
									<radialGradient id="SVGID_33_" cx="34598.4297" cy="-209.6845" r="1.4851" gradientTransform="matrix(8.970000e-02 9.050000e-02 0.7709 -0.7783 -2906.4653 -3258.5549)" gradientUnits="userSpaceOnUse">
									<stop  offset="0" style="stop-color:#FFFFFF"/>
									<stop  offset="7.010000e-02" style="stop-color:#FFFFFF;stop-opacity:0.9299"/>
									<stop  offset="1" style="stop-color:#FFFFFF;stop-opacity:0"/>
								</radialGradient>
								<path class="st36" d="M34.1,36.3c-0.6,0.6-1.2,1.1-1.3,1c-0.1-0.1,0.4-0.7,1-1.3s1.2-1.1,1.3-1C35.2,35,34.7,35.6,34.1,36.3
									z"/>
								
									<radialGradient id="SVGID_34_" cx="34598.3945" cy="-127.9167" r="0.5147" gradientTransform="matrix(8.970000e-02 9.050000e-02 0.4252 -0.4292 -3013.7456 -3150.2786)" gradientUnits="userSpaceOnUse">
									<stop  offset="0" style="stop-color:#FFFFFF"/>
									<stop  offset="7.010000e-02" style="stop-color:#FFFFFF;stop-opacity:0.9299"/>
									<stop  offset="1" style="stop-color:#FFFFFF;stop-opacity:0"/>
								</radialGradient>
								<path class="st37" d="M34,36.2c-0.1,0.1-0.2,0.2-0.3,0.2c0,0,0-0.2,0.2-0.3s0.2-0.2,0.3-0.2C34.2,35.9,34.1,36,34,36.2z"/>
							</g>
						</g>
					</g>
				</g>
				<g class="st38">
					<g>
						<g>
							<g>
								
									<radialGradient id="SVGID_35_" cx="36550.9102" cy="-619.2801" r="1.4848" gradientTransform="matrix(-8.020000e-02 8.100000e-02 0.7877 0.7952 3453.6638 -2431.3323)" gradientUnits="userSpaceOnUse">
									<stop  offset="0" style="stop-color:#FFFFFF"/>
									<stop  offset="7.010000e-02" style="stop-color:#FFFFFF;stop-opacity:0.9299"/>
									<stop  offset="1" style="stop-color:#FFFFFF;stop-opacity:0"/>
								</radialGradient>
								<path class="st39" d="M33.8,36.2c-0.7-0.7-1.1-1.2-1-1.3c0.1-0.1,0.6,0.4,1.3,1.1c0.6,0.7,1.1,1.2,1,1.3
									C35,37.4,34.5,36.9,33.8,36.2z"/>
								
									<radialGradient id="SVGID_36_" cx="36551.0547" cy="-377.5531" r="0.5146" gradientTransform="matrix(-8.020000e-02 8.100000e-02 0.4252 0.4292 3126.4343 -2761.6621)" gradientUnits="userSpaceOnUse">
									<stop  offset="0" style="stop-color:#FFFFFF"/>
									<stop  offset="7.010000e-02" style="stop-color:#FFFFFF;stop-opacity:0.9299"/>
									<stop  offset="1" style="stop-color:#FFFFFF;stop-opacity:0"/>
								</radialGradient>
								<path class="st40" d="M33.9,36.2c-0.1-0.1-0.2-0.2-0.2-0.3C33.7,35.9,33.8,36,33.9,36.2c0.2,0,0.3,0.2,0.3,0.2
									C34.1,36.4,34,36.3,33.9,36.2z"/>
							</g>
						</g>
					</g>
					<g>
						<g>
							<g>
								
									<radialGradient id="SVGID_37_" cx="34598.4297" cy="-209.6845" r="1.4851" gradientTransform="matrix(8.970000e-02 9.050000e-02 0.7709 -0.7783 -2906.4653 -3258.5549)" gradientUnits="userSpaceOnUse">
									<stop  offset="0" style="stop-color:#FFFFFF"/>
									<stop  offset="7.010000e-02" style="stop-color:#FFFFFF;stop-opacity:0.9299"/>
									<stop  offset="1" style="stop-color:#FFFFFF;stop-opacity:0"/>
								</radialGradient>
								<path class="st41" d="M34.1,36.3c-0.6,0.6-1.2,1.1-1.3,1c-0.1-0.1,0.4-0.7,1-1.3s1.2-1.1,1.3-1C35.2,35,34.7,35.6,34.1,36.3
									z"/>
								
									<radialGradient id="SVGID_38_" cx="34598.3945" cy="-127.9167" r="0.5147" gradientTransform="matrix(8.970000e-02 9.050000e-02 0.4252 -0.4292 -3013.7456 -3150.2786)" gradientUnits="userSpaceOnUse">
									<stop  offset="0" style="stop-color:#FFFFFF"/>
									<stop  offset="7.010000e-02" style="stop-color:#FFFFFF;stop-opacity:0.9299"/>
									<stop  offset="1" style="stop-color:#FFFFFF;stop-opacity:0"/>
								</radialGradient>
								<path class="st42" d="M34,36.2c-0.1,0.1-0.2,0.2-0.3,0.2c0,0,0-0.2,0.2-0.3s0.2-0.2,0.3-0.2C34.2,35.9,34.1,36,34,36.2z"/>
							</g>
						</g>
					</g>
				</g>
			</g>
			<g>
				<g>
					<g>
						
							<radialGradient id="SVGID_39_" cx="5879.5132" cy="7771.1626" r="1.1271" gradientTransform="matrix(0 3.7831 0.3366 0 -2599.7473 -22200.9492)" gradientUnits="userSpaceOnUse">
							<stop  offset="0" style="stop-color:#FFFFFF"/>
							<stop  offset="1" style="stop-color:#FFFFFF;stop-opacity:0"/>
						</radialGradient>
						<path class="st43" d="M16.1,46.1c-0.2,0-0.4-1.9-0.4-4.3c0-2.4,0.2-4.3,0.4-4.3c0.2,0,0.4,1.9,0.4,4.3S16.4,46.1,16.1,46.1z"
							/>
						
							<radialGradient id="SVGID_40_" cx="5864.6318" cy="18853.1445" r="0.714" gradientTransform="matrix(0 4.878 0.2658 0 -4995.769 -28565.6172)" gradientUnits="userSpaceOnUse">
							<stop  offset="0" style="stop-color:#FFFFFF"/>
							<stop  offset="0.1413" style="stop-color:#FFFFFF;stop-opacity:0.8587"/>
							<stop  offset="1" style="stop-color:#FFFFFF;stop-opacity:0"/>
						</radialGradient>
						<path class="st44" d="M16.1,45.3c-0.1,0-0.2-1.6-0.2-3.5s0.1-3.5,0.2-3.5c0.1,0,0.2,1.6,0.2,3.5S16.2,45.3,16.1,45.3z"/>
					</g>
					<g>
						<g>
							<g>
								<g>
									
										<radialGradient id="SVGID_41_" cx="38041.9922" cy="-983.567" r="2.244" gradientTransform="matrix(4.520000e-02 -4.560000e-02 -0.7877 -0.7952 -2478.7986 996.4184)" gradientUnits="userSpaceOnUse">
										<stop  offset="0" style="stop-color:#FFFFFF"/>
										<stop  offset="7.010000e-02" style="stop-color:#FFFFFF;stop-opacity:0.9299"/>
										<stop  offset="1" style="stop-color:#FFFFFF;stop-opacity:0"/>
									</radialGradient>
									<path class="st45" d="M16.2,41.8c1,1,1.7,1.8,1.7,1.9C17.9,43.8,17,43,16,42c-1-1-1.7-1.8-1.7-1.9
										C14.4,40.1,15.3,40.8,16.2,41.8z"/>
									
										<radialGradient id="SVGID_42_" cx="38041.6719" cy="-1052.4796" r="0.7777" gradientTransform="matrix(4.520000e-02 -4.560000e-02 -0.4252 -0.4292 -2151.5696 1326.7482)" gradientUnits="userSpaceOnUse">
										<stop  offset="0" style="stop-color:#FFFFFF"/>
										<stop  offset="7.010000e-02" style="stop-color:#FFFFFF;stop-opacity:0.9299"/>
										<stop  offset="1" style="stop-color:#FFFFFF;stop-opacity:0"/>
									</radialGradient>
									<path class="st46" d="M16.2,41.9c0.2,0.2,0.3,0.3,0.3,0.4C16.5,42.3,16.3,42.1,16.2,41.9c-0.2-0.1-0.4-0.3-0.4-0.3
										C15.8,41.6,16,41.7,16.2,41.9z"/>
								</g>
							</g>
						</g>
						<g>
							<g>
								<g>
									
										<radialGradient id="SVGID_43_" cx="30485.9863" cy="-288.5103" r="2.244" gradientTransform="matrix(-4.520000e-02 -4.560000e-02 -0.7709 0.7783 1172.3516 1658.4034)" gradientUnits="userSpaceOnUse">
										<stop  offset="0" style="stop-color:#FFFFFF"/>
										<stop  offset="7.010000e-02" style="stop-color:#FFFFFF;stop-opacity:0.9299"/>
										<stop  offset="1" style="stop-color:#FFFFFF;stop-opacity:0"/>
									</radialGradient>
									<path class="st47" d="M16,41.8c1-1,1.8-1.7,1.8-1.6c0.1,0.1-0.7,0.9-1.6,1.8c-1,1-1.8,1.7-1.8,1.6
										C14.4,43.6,15.1,42.8,16,41.8z"/>
									
										<radialGradient id="SVGID_44_" cx="30485.9922" cy="-270.8431" r="0.7777" gradientTransform="matrix(-4.520000e-02 -4.560000e-02 -0.4252 0.4292 1279.632 1550.127)" gradientUnits="userSpaceOnUse">
										<stop  offset="0" style="stop-color:#FFFFFF"/>
										<stop  offset="7.010000e-02" style="stop-color:#FFFFFF;stop-opacity:0.9299"/>
										<stop  offset="1" style="stop-color:#FFFFFF;stop-opacity:0"/>
									</radialGradient>
									<path class="st48" d="M16.1,41.9c0.2-0.2,0.3-0.3,0.4-0.3S16.4,41.8,16.1,41.9c-0.1,0.2-0.3,0.4-0.3,0.4
										C15.8,42.2,15.9,42.1,16.1,41.9z"/>
								</g>
							</g>
						</g>
					</g>
				</g>
			</g>
			<g>
				<g>
					
						<radialGradient id="SVGID_45_" cx="5874.9258" cy="7842.7275" r="0.7509" gradientTransform="matrix(0 3.7831 0.3366 0 -2599.7473 -22200.9492)" gradientUnits="userSpaceOnUse">
						<stop  offset="0" style="stop-color:#FFFFFF"/>
						<stop  offset="1" style="stop-color:#FFFFFF;stop-opacity:0"/>
					</radialGradient>
					<path class="st49" d="M40.2,27.3c-0.1,0-0.2-1.3-0.2-2.8s0.1-2.8,0.2-2.8s0.2,1.3,0.2,2.8S40.4,27.3,40.2,27.3z"/>
					
						<radialGradient id="SVGID_46_" cx="5861.0737" cy="18943.7617" r="0.4757" gradientTransform="matrix(0 4.878 0.2658 0 -4995.769 -28565.6172)" gradientUnits="userSpaceOnUse">
						<stop  offset="0" style="stop-color:#FFFFFF"/>
						<stop  offset="0.1413" style="stop-color:#FFFFFF;stop-opacity:0.8587"/>
						<stop  offset="1" style="stop-color:#FFFFFF;stop-opacity:0"/>
					</radialGradient>
					<path class="st50" d="M40.2,26.8c-0.1,0-0.1-1-0.1-2.3c0-1.3,0.1-2.3,0.1-2.3s0.1,1,0.1,2.3S40.3,26.8,40.2,26.8z"/>
				</g>
				<g>
					<g>
						<g>
							<g>
								
									<radialGradient id="SVGID_47_" cx="38498.875" cy="-987.9216" r="2.0397" gradientTransform="matrix(4.520000e-02 -4.560000e-02 -0.7877 -0.7952 -2478.7986 996.4184)" gradientUnits="userSpaceOnUse">
									<stop  offset="0" style="stop-color:#FFFFFF"/>
									<stop  offset="7.010000e-02" style="stop-color:#FFFFFF;stop-opacity:0.9299"/>
									<stop  offset="1" style="stop-color:#FFFFFF;stop-opacity:0"/>
								</radialGradient>
								<path class="st51" d="M40.3,24.4c0.9,0.9,1.6,1.7,1.5,1.7c-0.1,0.1-0.8-0.6-1.7-1.5c-0.9-0.9-1.6-1.7-1.5-1.7
									C38.7,22.9,39.4,23.5,40.3,24.4z"/>
								
									<radialGradient id="SVGID_48_" cx="38498.5547" cy="-1060.5468" r="0.707" gradientTransform="matrix(4.520000e-02 -4.560000e-02 -0.4252 -0.4292 -2151.5696 1326.7482)" gradientUnits="userSpaceOnUse">
									<stop  offset="0" style="stop-color:#FFFFFF"/>
									<stop  offset="7.010000e-02" style="stop-color:#FFFFFF;stop-opacity:0.9299"/>
									<stop  offset="1" style="stop-color:#FFFFFF;stop-opacity:0"/>
								</radialGradient>
								<path class="st52" d="M40.3,24.5c0.2,0.2,0.3,0.3,0.3,0.3C40.5,24.9,40.4,24.7,40.3,24.5c-0.2-0.1-0.4-0.2-0.3-0.3
									S40.1,24.3,40.3,24.5z"/>
							</g>
						</g>
					</g>
					<g>
						<g>
							<g>
								
									<radialGradient id="SVGID_49_" cx="30410.1309" cy="-315.3083" r="2.0397" gradientTransform="matrix(-4.520000e-02 -4.560000e-02 -0.7709 0.7783 1172.3516 1658.4034)" gradientUnits="userSpaceOnUse">
									<stop  offset="0" style="stop-color:#FFFFFF"/>
									<stop  offset="7.010000e-02" style="stop-color:#FFFFFF;stop-opacity:0.9299"/>
									<stop  offset="1" style="stop-color:#FFFFFF;stop-opacity:0"/>
								</radialGradient>
								<path class="st53" d="M40.1,24.4c0.9-0.9,1.6-1.5,1.7-1.5c0,0-0.6,0.8-1.5,1.7c-0.9,0.9-1.6,1.5-1.7,1.5
									C38.6,26.1,39.3,25.3,40.1,24.4z"/>
								
									<radialGradient id="SVGID_50_" cx="30410.1367" cy="-319.4324" r="0.707" gradientTransform="matrix(-4.520000e-02 -4.560000e-02 -0.4252 0.4292 1279.632 1550.127)" gradientUnits="userSpaceOnUse">
									<stop  offset="0" style="stop-color:#FFFFFF"/>
									<stop  offset="7.010000e-02" style="stop-color:#FFFFFF;stop-opacity:0.9299"/>
									<stop  offset="1" style="stop-color:#FFFFFF;stop-opacity:0"/>
								</radialGradient>
								<path class="st54" d="M40.2,24.5c0.2-0.2,0.3-0.3,0.3-0.3C40.6,24.2,40.4,24.4,40.2,24.5c-0.1,0.2-0.2,0.4-0.3,0.3
									C39.9,24.8,40,24.7,40.2,24.5z"/>
							</g>
						</g>
					</g>
				</g>
			</g>
		</g>
	</g>
	<text transform="matrix(1 0 0 1 49.0162 39.6668)" class="st55 st56 st57">HotCodes</text>
</g>
</svg>
